<mxfile host="app.diagrams.net" modified="2024-06-19T17:52:27.321Z" agent="Mozilla/5.0 (Macintosh; Intel Mac OS X 10_15_7) AppleWebKit/605.1.15 (KHTML, like Gecko) Version/16.5 Safari/605.1.15" etag="LODIHOckedKzSJW4Wcqd" version="24.5.5" type="device">
  <diagram name="Страница — 1" id="i9g7tokoLIn1ezmBAr_r">
    <mxGraphModel dx="1811" dy="585" grid="1" gridSize="10" guides="1" tooltips="1" connect="1" arrows="1" fold="1" page="1" pageScale="1" pageWidth="827" pageHeight="1169" math="0" shadow="0">
      <root>
        <mxCell id="0" />
        <mxCell id="1" parent="0" />
        <mxCell id="OXCxHhXZJOGKc3lj03d8-1" value="&lt;font style=&quot;font-size: 16px;&quot;&gt;Business Logic&lt;/font&gt;" style="html=1;dropTarget=0;whiteSpace=wrap;" vertex="1" parent="1">
          <mxGeometry x="170" y="160" width="180" height="90" as="geometry" />
        </mxCell>
        <mxCell id="OXCxHhXZJOGKc3lj03d8-2" value="" style="shape=module;jettyWidth=8;jettyHeight=4;" vertex="1" parent="OXCxHhXZJOGKc3lj03d8-1">
          <mxGeometry x="1" width="20" height="20" relative="1" as="geometry">
            <mxPoint x="-27" y="7" as="offset" />
          </mxGeometry>
        </mxCell>
        <mxCell id="OXCxHhXZJOGKc3lj03d8-3" value="&lt;font style=&quot;font-size: 16px;&quot;&gt;Database Access&lt;/font&gt;" style="html=1;dropTarget=0;whiteSpace=wrap;" vertex="1" parent="1">
          <mxGeometry x="430" y="160" width="180" height="90" as="geometry" />
        </mxCell>
        <mxCell id="OXCxHhXZJOGKc3lj03d8-4" value="" style="shape=module;jettyWidth=8;jettyHeight=4;" vertex="1" parent="OXCxHhXZJOGKc3lj03d8-3">
          <mxGeometry x="1" width="20" height="20" relative="1" as="geometry">
            <mxPoint x="-27" y="7" as="offset" />
          </mxGeometry>
        </mxCell>
        <mxCell id="OXCxHhXZJOGKc3lj03d8-5" value="&lt;font style=&quot;font-size: 16px;&quot;&gt;UI&lt;/font&gt;" style="html=1;dropTarget=0;whiteSpace=wrap;" vertex="1" parent="1">
          <mxGeometry x="-80" y="160" width="180" height="90" as="geometry" />
        </mxCell>
        <mxCell id="OXCxHhXZJOGKc3lj03d8-6" value="" style="shape=module;jettyWidth=8;jettyHeight=4;" vertex="1" parent="OXCxHhXZJOGKc3lj03d8-5">
          <mxGeometry x="1" width="20" height="20" relative="1" as="geometry">
            <mxPoint x="-27" y="7" as="offset" />
          </mxGeometry>
        </mxCell>
        <mxCell id="OXCxHhXZJOGKc3lj03d8-7" value="&lt;font style=&quot;font-size: 16px;&quot;&gt;Database&lt;/font&gt;" style="strokeWidth=2;html=1;shape=mxgraph.flowchart.database;whiteSpace=wrap;" vertex="1" parent="1">
          <mxGeometry x="670" y="152.5" width="90" height="105" as="geometry" />
        </mxCell>
        <mxCell id="OXCxHhXZJOGKc3lj03d8-10" value="" style="whiteSpace=wrap;html=1;aspect=fixed;" vertex="1" parent="1">
          <mxGeometry x="160" y="187.5" width="35" height="35" as="geometry" />
        </mxCell>
        <mxCell id="OXCxHhXZJOGKc3lj03d8-11" value="" style="endArrow=none;html=1;rounded=0;exitX=1;exitY=0.5;exitDx=0;exitDy=0;" edge="1" parent="1" source="OXCxHhXZJOGKc3lj03d8-8">
          <mxGeometry width="50" height="50" relative="1" as="geometry">
            <mxPoint x="210" y="320" as="sourcePoint" />
            <mxPoint x="150" y="205" as="targetPoint" />
          </mxGeometry>
        </mxCell>
        <mxCell id="OXCxHhXZJOGKc3lj03d8-12" value="" style="endArrow=none;html=1;rounded=0;exitX=0;exitY=0.5;exitDx=0;exitDy=0;exitPerimeter=0;entryX=0;entryY=0.5;entryDx=0;entryDy=0;" edge="1" parent="1" source="OXCxHhXZJOGKc3lj03d8-8" target="OXCxHhXZJOGKc3lj03d8-10">
          <mxGeometry width="50" height="50" relative="1" as="geometry">
            <mxPoint x="130" y="215" as="sourcePoint" />
            <mxPoint x="210" y="300" as="targetPoint" />
            <Array as="points" />
          </mxGeometry>
        </mxCell>
        <mxCell id="OXCxHhXZJOGKc3lj03d8-14" value="" style="whiteSpace=wrap;html=1;aspect=fixed;" vertex="1" parent="1">
          <mxGeometry x="340" y="187.5" width="35" height="35" as="geometry" />
        </mxCell>
        <mxCell id="OXCxHhXZJOGKc3lj03d8-15" value="" style="shape=providedRequiredInterface;html=1;verticalLabelPosition=bottom;sketch=0;" vertex="1" parent="1">
          <mxGeometry x="390" y="195" width="20" height="20" as="geometry" />
        </mxCell>
        <mxCell id="OXCxHhXZJOGKc3lj03d8-16" value="" style="endArrow=none;html=1;rounded=0;exitX=1;exitY=0.5;exitDx=0;exitDy=0;" edge="1" parent="1" source="OXCxHhXZJOGKc3lj03d8-5" target="OXCxHhXZJOGKc3lj03d8-8">
          <mxGeometry width="50" height="50" relative="1" as="geometry">
            <mxPoint x="100" y="205" as="sourcePoint" />
            <mxPoint x="150" y="205" as="targetPoint" />
          </mxGeometry>
        </mxCell>
        <mxCell id="OXCxHhXZJOGKc3lj03d8-8" value="" style="shape=providedRequiredInterface;html=1;verticalLabelPosition=bottom;sketch=0;direction=west;" vertex="1" parent="1">
          <mxGeometry x="120" y="195" width="20" height="20" as="geometry" />
        </mxCell>
        <mxCell id="OXCxHhXZJOGKc3lj03d8-18" value="" style="endArrow=none;html=1;rounded=0;entryX=1;entryY=0.5;entryDx=0;entryDy=0;exitX=0;exitY=0.5;exitDx=0;exitDy=0;exitPerimeter=0;" edge="1" parent="1" source="OXCxHhXZJOGKc3lj03d8-15" target="OXCxHhXZJOGKc3lj03d8-14">
          <mxGeometry width="50" height="50" relative="1" as="geometry">
            <mxPoint x="260" y="320" as="sourcePoint" />
            <mxPoint x="310" y="270" as="targetPoint" />
          </mxGeometry>
        </mxCell>
        <mxCell id="OXCxHhXZJOGKc3lj03d8-19" value="" style="endArrow=none;html=1;rounded=0;entryX=1;entryY=0.5;entryDx=0;entryDy=0;exitX=0;exitY=0.5;exitDx=0;exitDy=0;entryPerimeter=0;" edge="1" parent="1" source="OXCxHhXZJOGKc3lj03d8-3" target="OXCxHhXZJOGKc3lj03d8-15">
          <mxGeometry width="50" height="50" relative="1" as="geometry">
            <mxPoint x="414" y="215" as="sourcePoint" />
            <mxPoint x="385" y="215" as="targetPoint" />
          </mxGeometry>
        </mxCell>
        <mxCell id="OXCxHhXZJOGKc3lj03d8-20" value="" style="shape=providedRequiredInterface;html=1;verticalLabelPosition=bottom;sketch=0;direction=west;" vertex="1" parent="1">
          <mxGeometry x="630" y="195" width="20" height="20" as="geometry" />
        </mxCell>
        <mxCell id="OXCxHhXZJOGKc3lj03d8-21" value="" style="endArrow=none;html=1;rounded=0;exitX=1;exitY=0.5;exitDx=0;exitDy=0;entryX=1;entryY=0.5;entryDx=0;entryDy=0;entryPerimeter=0;" edge="1" parent="1" source="OXCxHhXZJOGKc3lj03d8-3" target="OXCxHhXZJOGKc3lj03d8-20">
          <mxGeometry width="50" height="50" relative="1" as="geometry">
            <mxPoint x="370" y="310" as="sourcePoint" />
            <mxPoint x="420" y="260" as="targetPoint" />
          </mxGeometry>
        </mxCell>
        <mxCell id="OXCxHhXZJOGKc3lj03d8-22" value="" style="endArrow=none;html=1;rounded=0;exitX=0;exitY=0.5;exitDx=0;exitDy=0;entryX=0;entryY=0.5;entryDx=0;entryDy=0;entryPerimeter=0;exitPerimeter=0;" edge="1" parent="1" source="OXCxHhXZJOGKc3lj03d8-7" target="OXCxHhXZJOGKc3lj03d8-20">
          <mxGeometry width="50" height="50" relative="1" as="geometry">
            <mxPoint x="620" y="215" as="sourcePoint" />
            <mxPoint x="650" y="215" as="targetPoint" />
          </mxGeometry>
        </mxCell>
      </root>
    </mxGraphModel>
  </diagram>
</mxfile>
